<svg xmlns="http://www.w3.org/2000/svg" xmlns:xlink="http://www.w3.org/1999/xlink" version="1.1" class="marks" width="409" height="241" viewBox="0 0 409 241"><rect width="409" height="241" fill="white"/><g fill="none" stroke-miterlimit="10" transform="translate(42,57)"><g class="mark-group role-frame root" role="graphics-object" aria-roledescription="group mark container"><g transform="translate(0,0)"><path class="background" aria-hidden="true" d="M0,0h0v0h0Z"/><g><g class="mark-group role-column-title column-title" role="graphics-object" aria-roledescription="group mark container"><g transform="translate(153,-31)"><path class="background" aria-hidden="true" d="M0,0h0v0h0Z"/><g><g class="mark-group role-title"><g transform="translate(0,-21)"><path class="background" aria-hidden="true" d="M0,0h0v0h0Z" pointer-events="none"/><g><g class="mark-text role-title-text" role="graphics-symbol" aria-roledescription="title" aria-label="Title text 'Drug'" pointer-events="none"><text text-anchor="middle" transform="translate(0,9)" font-family="sans-serif" font-size="11px" font-weight="bold" fill="#000" opacity="1">Drug</text></g></g><path class="foreground" aria-hidden="true" d="" pointer-events="none" display="none"/></g></g></g><path class="foreground" aria-hidden="true" d="" display="none"/></g></g><g class="mark-group role-row-header row_header" role="graphics-object" aria-roledescription="group mark container"><g transform="translate(-1,0)"><path class="background" aria-hidden="true" d="M0,0h0v150h0Z"/><g><g class="mark-group role-axis" role="graphics-symbol" aria-roledescription="axis" aria-label="Y-axis titled 'Ratio' for a linear scale with values from 0.0 to 1.0"><g transform="translate(0.5,0.5)"><path class="background" aria-hidden="true" d="M0,0h0v0h0Z" pointer-events="none"/><g><g class="mark-rule role-axis-tick" pointer-events="none"><line transform="translate(0,150)" x2="-5" y2="0" stroke="#888" stroke-width="1" opacity="1"/><line transform="translate(0,120)" x2="-5" y2="0" stroke="#888" stroke-width="1" opacity="1"/><line transform="translate(0,90)" x2="-5" y2="0" stroke="#888" stroke-width="1" opacity="1"/><line transform="translate(0,60)" x2="-5" y2="0" stroke="#888" stroke-width="1" opacity="1"/><line transform="translate(0,30)" x2="-5" y2="0" stroke="#888" stroke-width="1" opacity="1"/><line transform="translate(0,0)" x2="-5" y2="0" stroke="#888" stroke-width="1" opacity="1"/></g><g class="mark-text role-axis-label" pointer-events="none"><text text-anchor="end" transform="translate(-7,153)" font-family="sans-serif" font-size="10px" fill="#000" opacity="1">0.0</text><text text-anchor="end" transform="translate(-7,123)" font-family="sans-serif" font-size="10px" fill="#000" opacity="1">0.2</text><text text-anchor="end" transform="translate(-7,93)" font-family="sans-serif" font-size="10px" fill="#000" opacity="1">0.4</text><text text-anchor="end" transform="translate(-7,63)" font-family="sans-serif" font-size="10px" fill="#000" opacity="1">0.6</text><text text-anchor="end" transform="translate(-7,32.99999999999999)" font-family="sans-serif" font-size="10px" fill="#000" opacity="1">0.8</text><text text-anchor="end" transform="translate(-7,3)" font-family="sans-serif" font-size="10px" fill="#000" opacity="1">1.0</text></g><g class="mark-rule role-axis-domain" pointer-events="none"><line transform="translate(0,150)" x2="0" y2="-150" stroke="#888" stroke-width="1" opacity="1"/></g><g class="mark-text role-axis-title" pointer-events="none"><text text-anchor="middle" transform="translate(-24.9013671875,75) rotate(-90) translate(0,-2)" font-family="sans-serif" font-size="11px" font-weight="bold" fill="#000" opacity="1">Ratio</text></g></g><path class="foreground" aria-hidden="true" d="" pointer-events="none" display="none"/></g></g></g><path class="foreground" aria-hidden="true" d="" display="none"/></g></g><g class="mark-group role-column-header column_header" role="graphics-object" aria-roledescription="group mark container"><g transform="translate(0,-1)"><path class="background" aria-hidden="true" d="M0,0h60v0h-60Z"/><g><g class="mark-group role-title"><g transform="translate(30,-20)"><path class="background" aria-hidden="true" d="M0,0h0v0h0Z" pointer-events="none"/><g><g class="mark-text role-title-text" role="graphics-symbol" aria-roledescription="title" aria-label="Title text 'Hydroxychloroquine'" pointer-events="none"><text text-anchor="middle" transform="translate(0,8)" font-family="sans-serif" font-size="10px" fill="#000" opacity="1">Hydroxychloroquine</text></g></g><path class="foreground" aria-hidden="true" d="" pointer-events="none" display="none"/></g></g></g><path class="foreground" aria-hidden="true" d="" display="none"/></g><g transform="translate(82,-1)"><path class="background" aria-hidden="true" d="M0,0h60v0h-60Z"/><g><g class="mark-group role-title"><g transform="translate(30,-20)"><path class="background" aria-hidden="true" d="M0,0h0v0h0Z" pointer-events="none"/><g><g class="mark-text role-title-text" role="graphics-symbol" aria-roledescription="title" aria-label="Title text 'Ivermectin'" pointer-events="none"><text text-anchor="middle" transform="translate(0,8)" font-family="sans-serif" font-size="10px" fill="#000" opacity="1">Ivermectin</text></g></g><path class="foreground" aria-hidden="true" d="" pointer-events="none" display="none"/></g></g></g><path class="foreground" aria-hidden="true" d="" display="none"/></g><g transform="translate(164,-1)"><path class="background" aria-hidden="true" d="M0,0h60v0h-60Z"/><g><g class="mark-group role-title"><g transform="translate(30,-20)"><path class="background" aria-hidden="true" d="M0,0h0v0h0Z" pointer-events="none"/><g><g class="mark-text role-title-text" role="graphics-symbol" aria-roledescription="title" aria-label="Title text 'Molnupiravir'" pointer-events="none"><text text-anchor="middle" transform="translate(0,8)" font-family="sans-serif" font-size="10px" fill="#000" opacity="1">Molnupiravir</text></g></g><path class="foreground" aria-hidden="true" d="" pointer-events="none" display="none"/></g></g></g><path class="foreground" aria-hidden="true" d="" display="none"/></g><g transform="translate(246,-1)"><path class="background" aria-hidden="true" d="M0,0h60v0h-60Z"/><g><g class="mark-group role-title"><g transform="translate(30,-20)"><path class="background" aria-hidden="true" d="M0,0h0v0h0Z" pointer-events="none"/><g><g class="mark-text role-title-text" role="graphics-symbol" aria-roledescription="title" aria-label="Title text 'Remdesivir'" pointer-events="none"><text text-anchor="middle" transform="translate(0,8)" font-family="sans-serif" font-size="10px" fill="#000" opacity="1">Remdesivir</text></g></g><path class="foreground" aria-hidden="true" d="" pointer-events="none" display="none"/></g></g></g><path class="foreground" aria-hidden="true" d="" display="none"/></g></g><g class="mark-group role-column-footer column_footer" role="graphics-object" aria-roledescription="group mark container"><g transform="translate(0,151)"><path class="background" aria-hidden="true" d="M0,0h60v0h-60Z"/><g><g class="mark-group role-axis" role="graphics-symbol" aria-roledescription="axis" aria-label="X-axis titled 'Wave' for a discrete scale with 3 values: 1, 2, 3"><g transform="translate(0.5,0.5)"><path class="background" aria-hidden="true" d="M0,0h0v0h0Z" pointer-events="none"/><g><g class="mark-rule role-axis-tick" pointer-events="none"><line transform="translate(10,0)" x2="0" y2="5" stroke="#888" stroke-width="1" opacity="1"/><line transform="translate(30,0)" x2="0" y2="5" stroke="#888" stroke-width="1" opacity="1"/><line transform="translate(50,0)" x2="0" y2="5" stroke="#888" stroke-width="1" opacity="1"/></g><g class="mark-text role-axis-label" pointer-events="none"><text text-anchor="end" transform="translate(9.5,7) rotate(270) translate(0,3)" font-family="sans-serif" font-size="10px" fill="#000" opacity="1">1</text><text text-anchor="end" transform="translate(29.5,7) rotate(270) translate(0,3)" font-family="sans-serif" font-size="10px" fill="#000" opacity="1">2</text><text text-anchor="end" transform="translate(49.5,7) rotate(270) translate(0,3)" font-family="sans-serif" font-size="10px" fill="#000" opacity="1">3</text></g><g class="mark-rule role-axis-domain" pointer-events="none"><line transform="translate(0,0)" x2="60" y2="0" stroke="#888" stroke-width="1" opacity="1"/></g><g class="mark-text role-axis-title" pointer-events="none"><text text-anchor="middle" transform="translate(30,25.5615234375)" font-family="sans-serif" font-size="11px" font-weight="bold" fill="#000" opacity="1">Wave</text></g></g><path class="foreground" aria-hidden="true" d="" pointer-events="none" display="none"/></g></g></g><path class="foreground" aria-hidden="true" d="" display="none"/></g><g transform="translate(82,151)"><path class="background" aria-hidden="true" d="M0,0h60v0h-60Z"/><g><g class="mark-group role-axis" role="graphics-symbol" aria-roledescription="axis" aria-label="X-axis titled 'Wave' for a discrete scale with 3 values: 1, 2, 3"><g transform="translate(0.5,0.5)"><path class="background" aria-hidden="true" d="M0,0h0v0h0Z" pointer-events="none"/><g><g class="mark-rule role-axis-tick" pointer-events="none"><line transform="translate(10,0)" x2="0" y2="5" stroke="#888" stroke-width="1" opacity="1"/><line transform="translate(30,0)" x2="0" y2="5" stroke="#888" stroke-width="1" opacity="1"/><line transform="translate(50,0)" x2="0" y2="5" stroke="#888" stroke-width="1" opacity="1"/></g><g class="mark-text role-axis-label" pointer-events="none"><text text-anchor="end" transform="translate(9.5,7) rotate(270) translate(0,3)" font-family="sans-serif" font-size="10px" fill="#000" opacity="1">1</text><text text-anchor="end" transform="translate(29.5,7) rotate(270) translate(0,3)" font-family="sans-serif" font-size="10px" fill="#000" opacity="1">2</text><text text-anchor="end" transform="translate(49.5,7) rotate(270) translate(0,3)" font-family="sans-serif" font-size="10px" fill="#000" opacity="1">3</text></g><g class="mark-rule role-axis-domain" pointer-events="none"><line transform="translate(0,0)" x2="60" y2="0" stroke="#888" stroke-width="1" opacity="1"/></g><g class="mark-text role-axis-title" pointer-events="none"><text text-anchor="middle" transform="translate(30,25.5615234375)" font-family="sans-serif" font-size="11px" font-weight="bold" fill="#000" opacity="1">Wave</text></g></g><path class="foreground" aria-hidden="true" d="" pointer-events="none" display="none"/></g></g></g><path class="foreground" aria-hidden="true" d="" display="none"/></g><g transform="translate(164,151)"><path class="background" aria-hidden="true" d="M0,0h60v0h-60Z"/><g><g class="mark-group role-axis" role="graphics-symbol" aria-roledescription="axis" aria-label="X-axis titled 'Wave' for a discrete scale with 3 values: 1, 2, 3"><g transform="translate(0.5,0.5)"><path class="background" aria-hidden="true" d="M0,0h0v0h0Z" pointer-events="none"/><g><g class="mark-rule role-axis-tick" pointer-events="none"><line transform="translate(10,0)" x2="0" y2="5" stroke="#888" stroke-width="1" opacity="1"/><line transform="translate(30,0)" x2="0" y2="5" stroke="#888" stroke-width="1" opacity="1"/><line transform="translate(50,0)" x2="0" y2="5" stroke="#888" stroke-width="1" opacity="1"/></g><g class="mark-text role-axis-label" pointer-events="none"><text text-anchor="end" transform="translate(9.5,7) rotate(270) translate(0,3)" font-family="sans-serif" font-size="10px" fill="#000" opacity="1">1</text><text text-anchor="end" transform="translate(29.5,7) rotate(270) translate(0,3)" font-family="sans-serif" font-size="10px" fill="#000" opacity="1">2</text><text text-anchor="end" transform="translate(49.5,7) rotate(270) translate(0,3)" font-family="sans-serif" font-size="10px" fill="#000" opacity="1">3</text></g><g class="mark-rule role-axis-domain" pointer-events="none"><line transform="translate(0,0)" x2="60" y2="0" stroke="#888" stroke-width="1" opacity="1"/></g><g class="mark-text role-axis-title" pointer-events="none"><text text-anchor="middle" transform="translate(30,25.5615234375)" font-family="sans-serif" font-size="11px" font-weight="bold" fill="#000" opacity="1">Wave</text></g></g><path class="foreground" aria-hidden="true" d="" pointer-events="none" display="none"/></g></g></g><path class="foreground" aria-hidden="true" d="" display="none"/></g><g transform="translate(246,151)"><path class="background" aria-hidden="true" d="M0,0h60v0h-60Z"/><g><g class="mark-group role-axis" role="graphics-symbol" aria-roledescription="axis" aria-label="X-axis titled 'Wave' for a discrete scale with 3 values: 1, 2, 3"><g transform="translate(0.5,0.5)"><path class="background" aria-hidden="true" d="M0,0h0v0h0Z" pointer-events="none"/><g><g class="mark-rule role-axis-tick" pointer-events="none"><line transform="translate(10,0)" x2="0" y2="5" stroke="#888" stroke-width="1" opacity="1"/><line transform="translate(30,0)" x2="0" y2="5" stroke="#888" stroke-width="1" opacity="1"/><line transform="translate(50,0)" x2="0" y2="5" stroke="#888" stroke-width="1" opacity="1"/></g><g class="mark-text role-axis-label" pointer-events="none"><text text-anchor="end" transform="translate(9.5,7) rotate(270) translate(0,3)" font-family="sans-serif" font-size="10px" fill="#000" opacity="1">1</text><text text-anchor="end" transform="translate(29.5,7) rotate(270) translate(0,3)" font-family="sans-serif" font-size="10px" fill="#000" opacity="1">2</text><text text-anchor="end" transform="translate(49.5,7) rotate(270) translate(0,3)" font-family="sans-serif" font-size="10px" fill="#000" opacity="1">3</text></g><g class="mark-rule role-axis-domain" pointer-events="none"><line transform="translate(0,0)" x2="60" y2="0" stroke="#888" stroke-width="1" opacity="1"/></g><g class="mark-text role-axis-title" pointer-events="none"><text text-anchor="middle" transform="translate(30,25.5615234375)" font-family="sans-serif" font-size="11px" font-weight="bold" fill="#000" opacity="1">Wave</text></g></g><path class="foreground" aria-hidden="true" d="" pointer-events="none" display="none"/></g></g></g><path class="foreground" aria-hidden="true" d="" display="none"/></g></g><g class="mark-group role-scope cell" role="graphics-object" aria-roledescription="group mark container"><g transform="translate(0,0)"><path class="background" aria-hidden="true" d="M0.5,0.5h60v150h-60Z" stroke="#ddd"/><g><g class="mark-group role-axis" aria-hidden="true"><g transform="translate(0.5,0.5)"><path class="background" aria-hidden="true" d="M0,0h0v0h0Z" pointer-events="none"/><g><g class="mark-rule role-axis-grid" pointer-events="none"><line transform="translate(0,150)" x2="60" y2="0" stroke="#ddd" stroke-width="1" opacity="1"/><line transform="translate(0,120)" x2="60" y2="0" stroke="#ddd" stroke-width="1" opacity="1"/><line transform="translate(0,90)" x2="60" y2="0" stroke="#ddd" stroke-width="1" opacity="1"/><line transform="translate(0,60)" x2="60" y2="0" stroke="#ddd" stroke-width="1" opacity="1"/><line transform="translate(0,30)" x2="60" y2="0" stroke="#ddd" stroke-width="1" opacity="1"/><line transform="translate(0,0)" x2="60" y2="0" stroke="#ddd" stroke-width="1" opacity="1"/></g></g><path class="foreground" aria-hidden="true" d="" pointer-events="none" display="none"/></g></g><g class="mark-rect role-mark child_marks" role="graphics-object" aria-roledescription="rect mark container"><path aria-label="Stance: -1; Wave: 1; Ratio: 0.350514131791" role="graphics-symbol" aria-roledescription="bar" d="M1,0h18v52.57711976860342h-18Z" fill="#fd7f6f" opacity="0.9"/><path aria-label="Stance: 0; Wave: 1; Ratio: 0.138435389364" role="graphics-symbol" aria-roledescription="bar" d="M1,52.57711976860342h18v20.765308404526543h-18Z" fill="#cfd8dc" opacity="0.9"/><path aria-label="Stance: 1; Wave: 1; Ratio: 0.511050478846" role="graphics-symbol" aria-roledescription="bar" d="M1,73.34242817312996h18v76.65757182687004h-18Z" fill="#7e9ab9" opacity="0.9"/><path aria-label="Stance: -1; Wave: 2; Ratio: 0.328861856357" role="graphics-symbol" aria-roledescription="bar" d="M21,0h18v49.32927845359107h-18Z" fill="#fd7f6f" opacity="0.9"/><path aria-label="Stance: 0; Wave: 2; Ratio: 0.13379714492" role="graphics-symbol" aria-roledescription="bar" d="M21,49.32927845359107h18v20.069571738043663h-18Z" fill="#cfd8dc" opacity="0.9"/><path aria-label="Stance: 1; Wave: 2; Ratio: 0.537340998722" role="graphics-symbol" aria-roledescription="bar" d="M21,69.39885019163474h18v80.60114980836526h-18Z" fill="#7e9ab9" opacity="0.9"/><path aria-label="Stance: -1; Wave: 3; Ratio: 0.320499370541" role="graphics-symbol" aria-roledescription="bar" d="M41,0h18v48.074905581200156h-18Z" fill="#fd7f6f" opacity="0.9"/><path aria-label="Stance: 0; Wave: 3; Ratio: 0.136435165757" role="graphics-symbol" aria-roledescription="bar" d="M41,48.074905581200156h18v20.465274863617296h-18Z" fill="#cfd8dc" opacity="0.9"/><path aria-label="Stance: 1; Wave: 3; Ratio: 0.543065463701" role="graphics-symbol" aria-roledescription="bar" d="M41,68.54018044481745h18v81.45981955518255h-18Z" fill="#7e9ab9" opacity="0.9"/></g></g><path class="foreground" aria-hidden="true" d="" display="none"/></g><g transform="translate(82,0)"><path class="background" aria-hidden="true" d="M0.5,0.5h60v150h-60Z" stroke="#ddd"/><g><g class="mark-group role-axis" aria-hidden="true"><g transform="translate(0.5,0.5)"><path class="background" aria-hidden="true" d="M0,0h0v0h0Z" pointer-events="none"/><g><g class="mark-rule role-axis-grid" pointer-events="none"><line transform="translate(0,150)" x2="60" y2="0" stroke="#ddd" stroke-width="1" opacity="1"/><line transform="translate(0,120)" x2="60" y2="0" stroke="#ddd" stroke-width="1" opacity="1"/><line transform="translate(0,90)" x2="60" y2="0" stroke="#ddd" stroke-width="1" opacity="1"/><line transform="translate(0,60)" x2="60" y2="0" stroke="#ddd" stroke-width="1" opacity="1"/><line transform="translate(0,30)" x2="60" y2="0" stroke="#ddd" stroke-width="1" opacity="1"/><line transform="translate(0,0)" x2="60" y2="0" stroke="#ddd" stroke-width="1" opacity="1"/></g></g><path class="foreground" aria-hidden="true" d="" pointer-events="none" display="none"/></g></g><g class="mark-rect role-mark child_marks" role="graphics-object" aria-roledescription="rect mark container"><path aria-label="Stance: -1; Wave: 1; Ratio: 0.123949579832" role="graphics-symbol" aria-roledescription="bar" d="M1,1.6653345369377348e-14h18v18.592436974789898h-18Z" fill="#fd7f6f" opacity="0.9"/><path aria-label="Stance: 0; Wave: 1; Ratio: 0.223319327731" role="graphics-symbol" aria-roledescription="bar" d="M1,18.592436974789916h18v33.49789915966386h-18Z" fill="#cfd8dc" opacity="0.9"/><path aria-label="Stance: 1; Wave: 1; Ratio: 0.652731092437" role="graphics-symbol" aria-roledescription="bar" d="M1,52.09033613445378h18v97.90966386554622h-18Z" fill="#7e9ab9" opacity="0.9"/><path aria-label="Stance: -1; Wave: 2; Ratio: 0.137527366963" role="graphics-symbol" aria-roledescription="bar" d="M21,0h18v20.62910504445735h-18Z" fill="#fd7f6f" opacity="0.9"/><path aria-label="Stance: 0; Wave: 2; Ratio: 0.219025065904" role="graphics-symbol" aria-roledescription="bar" d="M21,20.62910504445735h18v32.853759885617265h-18Z" fill="#cfd8dc" opacity="0.9"/><path aria-label="Stance: 1; Wave: 2; Ratio: 0.643447567133" role="graphics-symbol" aria-roledescription="bar" d="M21,53.48286493007461h18v96.51713506992539h-18Z" fill="#7e9ab9" opacity="0.9"/><path aria-label="Stance: -1; Wave: 3; Ratio: 0.369822821887" role="graphics-symbol" aria-roledescription="bar" d="M41,0h18v55.473423283014945h-18Z" fill="#fd7f6f" opacity="0.9"/><path aria-label="Stance: 0; Wave: 3; Ratio: 0.19461885183" role="graphics-symbol" aria-roledescription="bar" d="M41,55.473423283014945h18v29.192827774561756h-18Z" fill="#cfd8dc" opacity="0.9"/><path aria-label="Stance: 1; Wave: 3; Ratio: 0.435558326283" role="graphics-symbol" aria-roledescription="bar" d="M41,84.6662510575767h18v65.3337489424233h-18Z" fill="#7e9ab9" opacity="0.9"/></g></g><path class="foreground" aria-hidden="true" d="" display="none"/></g><g transform="translate(164,0)"><path class="background" aria-hidden="true" d="M0.5,0.5h60v150h-60Z" stroke="#ddd"/><g><g class="mark-group role-axis" aria-hidden="true"><g transform="translate(0.5,0.5)"><path class="background" aria-hidden="true" d="M0,0h0v0h0Z" pointer-events="none"/><g><g class="mark-rule role-axis-grid" pointer-events="none"><line transform="translate(0,150)" x2="60" y2="0" stroke="#ddd" stroke-width="1" opacity="1"/><line transform="translate(0,120)" x2="60" y2="0" stroke="#ddd" stroke-width="1" opacity="1"/><line transform="translate(0,90)" x2="60" y2="0" stroke="#ddd" stroke-width="1" opacity="1"/><line transform="translate(0,60)" x2="60" y2="0" stroke="#ddd" stroke-width="1" opacity="1"/><line transform="translate(0,30)" x2="60" y2="0" stroke="#ddd" stroke-width="1" opacity="1"/><line transform="translate(0,0)" x2="60" y2="0" stroke="#ddd" stroke-width="1" opacity="1"/></g></g><path class="foreground" aria-hidden="true" d="" pointer-events="none" display="none"/></g></g><g class="mark-rect role-mark child_marks" role="graphics-object" aria-roledescription="rect mark container"><path aria-label="Stance: -1; Wave: 1; Ratio: 0.208333333333" role="graphics-symbol" aria-roledescription="bar" d="M1,0h18v31.24999999999999h-18Z" fill="#fd7f6f" opacity="0.9"/><path aria-label="Stance: 0; Wave: 1; Ratio: 0.416666666667" role="graphics-symbol" aria-roledescription="bar" d="M1,31.24999999999999h18v62.500000000000014h-18Z" fill="#cfd8dc" opacity="0.9"/><path aria-label="Stance: 1; Wave: 1; Ratio: 0.375" role="graphics-symbol" aria-roledescription="bar" d="M1,93.75h18v56.25h-18Z" fill="#7e9ab9" opacity="0.9"/><path aria-label="Stance: -1; Wave: 2; Ratio: 0.12769010043" role="graphics-symbol" aria-roledescription="bar" d="M21,0h18v19.15351506456241h-18Z" fill="#fd7f6f" opacity="0.9"/><path aria-label="Stance: 0; Wave: 2; Ratio: 0.35581061693" role="graphics-symbol" aria-roledescription="bar" d="M21,19.15351506456241h18v53.37159253945481h-18Z" fill="#cfd8dc" opacity="0.9"/><path aria-label="Stance: 1; Wave: 2; Ratio: 0.51649928264" role="graphics-symbol" aria-roledescription="bar" d="M21,72.52510760401722h18v77.47489239598278h-18Z" fill="#7e9ab9" opacity="0.9"/><path aria-label="Stance: -1; Wave: 3; Ratio: 0.143363249882" role="graphics-symbol" aria-roledescription="bar" d="M41,1.6653345369377348e-14h18v21.504487482286244h-18Z" fill="#fd7f6f" opacity="0.9"/><path aria-label="Stance: 0; Wave: 3; Ratio: 0.328530940009" role="graphics-symbol" aria-roledescription="bar" d="M41,21.50448748228626h18v49.27964100141709h-18Z" fill="#cfd8dc" opacity="0.9"/><path aria-label="Stance: 1; Wave: 3; Ratio: 0.528105810109" role="graphics-symbol" aria-roledescription="bar" d="M41,70.78412848370336h18v79.21587151629664h-18Z" fill="#7e9ab9" opacity="0.9"/></g></g><path class="foreground" aria-hidden="true" d="" display="none"/></g><g transform="translate(246,0)"><path class="background" aria-hidden="true" d="M0.5,0.5h60v150h-60Z" stroke="#ddd"/><g><g class="mark-group role-axis" aria-hidden="true"><g transform="translate(0.5,0.5)"><path class="background" aria-hidden="true" d="M0,0h0v0h0Z" pointer-events="none"/><g><g class="mark-rule role-axis-grid" pointer-events="none"><line transform="translate(0,150)" x2="60" y2="0" stroke="#ddd" stroke-width="1" opacity="1"/><line transform="translate(0,120)" x2="60" y2="0" stroke="#ddd" stroke-width="1" opacity="1"/><line transform="translate(0,90)" x2="60" y2="0" stroke="#ddd" stroke-width="1" opacity="1"/><line transform="translate(0,60)" x2="60" y2="0" stroke="#ddd" stroke-width="1" opacity="1"/><line transform="translate(0,30)" x2="60" y2="0" stroke="#ddd" stroke-width="1" opacity="1"/><line transform="translate(0,0)" x2="60" y2="0" stroke="#ddd" stroke-width="1" opacity="1"/></g></g><path class="foreground" aria-hidden="true" d="" pointer-events="none" display="none"/></g></g><g class="mark-rect role-mark child_marks" role="graphics-object" aria-roledescription="rect mark container"><path aria-label="Stance: -1; Wave: 1; Ratio: 0.15176586173" role="graphics-symbol" aria-roledescription="bar" d="M1,3.3306690738754696e-14h18v22.764879259527373h-18Z" fill="#fd7f6f" opacity="0.9"/><path aria-label="Stance: 0; Wave: 1; Ratio: 0.391488701587" role="graphics-symbol" aria-roledescription="bar" d="M1,22.764879259527405h18v58.72330523811985h-18Z" fill="#cfd8dc" opacity="0.9"/><path aria-label="Stance: 1; Wave: 1; Ratio: 0.456745436682" role="graphics-symbol" aria-roledescription="bar" d="M1,81.48818449764725h18v68.51181550235275h-18Z" fill="#7e9ab9" opacity="0.9"/><path aria-label="Stance: -1; Wave: 2; Ratio: 0.330130118181" role="graphics-symbol" aria-roledescription="bar" d="M21,1.6653345369377348e-14h18v49.519517727109935h-18Z" fill="#fd7f6f" opacity="0.9"/><path aria-label="Stance: 0; Wave: 2; Ratio: 0.236421153157" role="graphics-symbol" aria-roledescription="bar" d="M21,49.51951772710995h18v35.46317297361825h-18Z" fill="#cfd8dc" opacity="0.9"/><path aria-label="Stance: 1; Wave: 2; Ratio: 0.433448728662" role="graphics-symbol" aria-roledescription="bar" d="M21,84.9826907007282h18v65.0173092992718h-18Z" fill="#7e9ab9" opacity="0.9"/><path aria-label="Stance: -1; Wave: 3; Ratio: 0.374629209562" role="graphics-symbol" aria-roledescription="bar" d="M41,0h18v56.19438143430466h-18Z" fill="#fd7f6f" opacity="0.9"/><path aria-label="Stance: 0; Wave: 3; Ratio: 0.18740184959" role="graphics-symbol" aria-roledescription="bar" d="M41,56.19438143430466h18v28.110277438492417h-18Z" fill="#cfd8dc" opacity="0.9"/><path aria-label="Stance: 1; Wave: 3; Ratio: 0.437968940848" role="graphics-symbol" aria-roledescription="bar" d="M41,84.30465887279708h18v65.69534112720292h-18Z" fill="#7e9ab9" opacity="0.9"/></g></g><path class="foreground" aria-hidden="true" d="" display="none"/></g></g><g class="mark-group role-legend" role="graphics-symbol" aria-roledescription="legend" aria-label="Symbol legend titled 'Stance' for fill color with 3 values: -1, 0, 1"><g transform="translate(325,0)"><path class="background" aria-hidden="true" d="M0,0h37v53h-37Z" pointer-events="none"/><g><g class="mark-group role-legend-entry"><g transform="translate(0,16)"><path class="background" aria-hidden="true" d="M0,0h0v0h0Z" pointer-events="none"/><g><g class="mark-group role-scope" role="graphics-object" aria-roledescription="group mark container"><g transform="translate(0,0)"><path class="background" aria-hidden="true" d="M0,0h24.8916015625v11h-24.8916015625Z" pointer-events="none" opacity="1"/><g><g class="mark-symbol role-legend-symbol" pointer-events="none"><path transform="translate(6,6)" d="M-5,-5h10v10h-10Z" fill="#fd7f6f" stroke-width="1.5" opacity="0.9"/></g><g class="mark-text role-legend-label" pointer-events="none"><text text-anchor="start" transform="translate(16,9)" font-family="sans-serif" font-size="10px" fill="#000" opacity="1">-1</text></g></g><path class="foreground" aria-hidden="true" d="" pointer-events="none" display="none"/></g><g transform="translate(0,13)"><path class="background" aria-hidden="true" d="M0,0h24.8916015625v11h-24.8916015625Z" pointer-events="none" opacity="1"/><g><g class="mark-symbol role-legend-symbol" pointer-events="none"><path transform="translate(6,6)" d="M-5,-5h10v10h-10Z" fill="#cfd8dc" stroke-width="1.5" opacity="0.9"/></g><g class="mark-text role-legend-label" pointer-events="none"><text text-anchor="start" transform="translate(16,9)" font-family="sans-serif" font-size="10px" fill="#000" opacity="1">0</text></g></g><path class="foreground" aria-hidden="true" d="" pointer-events="none" display="none"/></g><g transform="translate(0,26)"><path class="background" aria-hidden="true" d="M0,0h24.8916015625v11h-24.8916015625Z" pointer-events="none" opacity="1"/><g><g class="mark-symbol role-legend-symbol" pointer-events="none"><path transform="translate(6,6)" d="M-5,-5h10v10h-10Z" fill="#7e9ab9" stroke-width="1.5" opacity="0.9"/></g><g class="mark-text role-legend-label" pointer-events="none"><text text-anchor="start" transform="translate(16,9)" font-family="sans-serif" font-size="10px" fill="#000" opacity="1">1</text></g></g><path class="foreground" aria-hidden="true" d="" pointer-events="none" display="none"/></g></g></g><path class="foreground" aria-hidden="true" d="" pointer-events="none" display="none"/></g></g><g class="mark-text role-legend-title" pointer-events="none"><text text-anchor="start" transform="translate(0,9)" font-family="sans-serif" font-size="11px" font-weight="bold" fill="#000" opacity="1">Stance</text></g></g><path class="foreground" aria-hidden="true" d="" pointer-events="none" display="none"/></g></g></g><path class="foreground" aria-hidden="true" d="" display="none"/></g></g></g></svg>